<svg preserveAspectRatio="xMidYMid meet" overflow="visible" style="display: block;" viewBox="0 0 105.37 37" fill="none" xmlns="http://www.w3.org/2000/svg">
<g id="flag-standalone-bw (1) 1" clip-path="url(#clip0_0_4)">
<path id="Vector" d="M11.1964 2.36553C11.2106 2.33299 11.2293 2.30745 11.2586 2.2875C11.9853 1.79236 22.5457 -4.88002 47.5617 7.16075C71.1914 18.5344 95.0185 5.22436 99.3 2.56334C99.442 2.47516 99.6798 2.70207 99.6037 2.85105L95.3004 11.2597C95.2325 11.3922 95.3254 11.55 95.4736 11.552C96.5928 11.5676 100.495 11.6126 104.865 11.5544C105.047 11.552 105.15 11.759 105.018 11.8839C102.082 14.6641 81.3681 33.7219 65.1048 33.7219C47.5617 33.7219 38.0613 29.6086 26.8432 26.498C15.7968 23.4351 10.4804 22.4075 3.72165 23.534C3.57587 23.5583 3.4525 23.4224 3.49296 23.2798L6.10983 14.0558L11.1964 2.36553Z" fill="var(--fill-0, white)"/>
<g id="Group">
<path id="Vector_2" d="M16.7632 6.65867C16.497 8.1696 15.9861 10.765 14.9121 14.1191C12.6813 19.4685 16.4858 18.596 17.5752 16.3735C18.2209 15.1462 18.885 13.8144 18.885 13.8144L22.3041 15.1302C22.3041 15.1302 22.0289 16.6932 21.7474 17.9863C20.6733 21.3404 23.8045 20.9376 24.6705 18.4598C25.0559 17.1856 26.8522 11.8653 27.3476 9.05181C28.0944 7.25138 25.5383 5.60763 24.3818 8.51688C23.7636 9.58785 22.7598 11.9333 22.7598 11.9333C22.7598 11.9333 19.9376 10.8866 19.9041 10.773C19.7939 10.4845 20.1396 9.74047 20.1548 9.04443C19.9829 4.22926 17.1211 4.62663 16.7632 6.65867Z" fill="var(--fill-0, black)" stroke="var(--stroke-0, black)" stroke-width="0.25" stroke-miterlimit="10"/>
<path id="Vector_3" d="M31.8278 10.4087C32.698 8.66968 33.6972 8.37803 34.4402 8.45727C34.7607 8.4839 35.1966 9.13832 35.53 9.76693C36.6213 13.9069 34.6656 21.5209 34.3198 22.0323C33.1295 23.9623 31.041 23.5974 31.8342 21.5123C32.2048 20.2456 32.6017 19.0942 32.6017 19.0942L29.8981 18.7912C27.7737 22.934 25.8636 21.1994 26.9644 19.4097C28.1419 17.3131 30.6505 12.723 31.8278 10.4087ZM30.9342 15.7335L33.5993 16.1901C33.5993 16.1901 34.3395 11.4793 33.5071 11.9763L30.9342 15.7335Z" fill="var(--fill-0, black)" stroke="var(--stroke-0, black)" stroke-width="0.25" stroke-miterlimit="10"/>
<path id="Vector_4" d="M45.5906 14.5826C45.9433 13.5849 45.21 11.3287 42.6478 11.7049C38.9369 11.7318 37.653 18.2587 37.653 18.2587C37.653 18.2587 37.0362 21.4198 38.0096 23.5742C38.8942 25.6515 41.04 25.6581 41.4567 25.7108C43.8924 24.9756 43.0583 23.3466 42.6418 23.2941C42.1116 23.267 41.3922 23.3542 40.8113 22.8787C39.8263 22.0818 40.0018 20.059 40.2157 18.971C40.7195 17.1414 41.8283 13.508 43.5962 14.397C44.6571 15.7579 45.4015 15.1328 45.5906 14.5826Z" fill="var(--fill-0, black)" stroke="var(--stroke-0, black)" stroke-width="0.25" stroke-miterlimit="10"/>
<path id="Vector_5" d="M48.0311 14.4148C47.3786 16.4151 48.1968 18.5218 46.5651 22.3295C46.1761 23.2595 45.222 24.9651 45.109 25.2073C44.2051 26.9261 46.0405 27.9392 48.0621 24.936C48.5519 24.2487 49.0914 22.4906 49.0914 22.4906L49.971 22.3914C49.971 22.3914 50.7395 25.786 50.9163 27.2402C51.1054 28.6436 53.5818 29.4419 53.6179 26.6877C53.5295 25.7436 53.2018 24.4673 52.5852 22.8459C52.5852 22.8459 52.1824 21.6585 51.7927 21.5042C51.7927 21.5042 54.556 18.7457 54.8194 17.6751C55.0953 16.5539 54.5921 15.7743 52.4314 17.6039C50.2709 19.4337 50.0199 20.0195 50.0199 20.0195C50.0199 20.0195 50.5337 17.7128 50.4824 15.9655C50.6701 14.1171 48.5956 12.7715 48.0311 14.4148Z" fill="var(--fill-0, black)" stroke="var(--stroke-0, black)" stroke-width="0.25" stroke-miterlimit="10"/>
<path id="Vector_6" d="M61.9477 17.8904C61.0206 18.813 60.4373 20.5449 60.5024 23.1652C60.6316 27.0766 62.246 29.3237 65.0024 28.8763C67.7588 28.4287 67.1098 26.4323 66.8558 26.3661C66.6527 26.3132 66.6016 26.0786 65.4714 26.5053C64.3407 26.9318 63.4896 26.4337 62.777 24.6977C62.3063 23.5229 62.0511 21.2408 62.9014 19.9661C63.1554 19.5888 63.3966 19.4852 63.5236 19.4073C64.0316 19.0963 64.5525 19.3977 64.6416 19.4762C66.0651 20.5105 66.3438 19.3643 65.8349 18.3458C64.8307 16.9217 63.4968 16.6308 61.9477 17.8904Z" fill="var(--fill-0, black)" stroke="var(--stroke-0, black)" stroke-width="0.25" stroke-miterlimit="10"/>
<path id="Vector_7" d="M68.1096 17.9495C68.0962 16.4648 69.6232 15.3203 70.1601 18.6402C70.8232 20.7854 70.6545 24.9334 70.9726 25.3175C71.2907 25.7015 73.6589 25.1654 74.3002 24.9489C74.9412 24.7323 76.1227 25.0166 75.8557 25.6613C75.6395 26.3191 75.0283 26.3816 74.9011 26.4588C74.7737 26.5358 69.4211 28.1286 69.2224 27.0683C69.0237 26.0078 69.0111 25.5197 68.8107 23.7138C68.6104 21.9076 68.1232 19.4344 68.1096 17.9495Z" fill="var(--fill-0, black)" stroke="var(--stroke-0, black)" stroke-width="0.25" stroke-miterlimit="10"/>
<path id="Vector_8" d="M74.5285 16.6206C74.4123 15.5472 75.5027 14.8914 76.1449 16.0439C76.6327 16.9373 77.1994 20.8173 77.9959 22.4487C78.4326 23.1093 79.3307 23.2284 79.7539 22.6223C80.2537 21.7059 79.8932 19.4167 79.5843 17.5801C79.3655 16.7003 79.1135 16.0279 79.1261 15.5366C79.3176 13.8825 80.6394 14.2744 81.2562 15.9698C81.7702 17.8589 82.3059 20.9108 82.0372 21.9959C81.7812 23.0291 81.5124 24.3339 80.1782 24.6531C79.8319 24.7297 76.9454 25.1471 75.9302 21.9768C74.953 18.6515 74.6447 17.6939 74.5285 16.6206Z" fill="var(--fill-0, black)" stroke="var(--stroke-0, black)" stroke-width="0.25" stroke-miterlimit="10"/>
<path id="Vector_9" d="M83.5801 13.0772C85.3552 12 86.6869 11.6305 87.7272 12.0076C88.3362 12.3832 88.73 13.4154 88.5657 14.304C88.376 15.0767 88.0591 15.7071 88.0591 15.7071C89.112 15.8136 89.883 16.8685 90.0834 18.2492C90.2837 19.6299 88.988 20.9293 86.5785 21.7337C85.7668 21.9631 84.9044 21.9603 84.8662 21.6768C84.8403 21.1224 82.7946 14.518 82.7946 14.518C82.7307 14.1182 82.515 13.6795 83.5801 13.0772ZM84.3163 14.2522L85.2055 16.3426C85.2055 16.3426 87.3614 15.473 87.107 14.3123C86.8528 13.1517 85.496 13.8433 84.3163 14.2522ZM85.5108 17.9544C85.5108 17.9544 86.121 20.5207 86.0958 20.4047C86.0827 20.2372 89.2388 19.6062 88.5657 17.9544C87.8922 16.3029 85.5108 17.9544 85.5108 17.9544Z" fill="var(--fill-0, black)" stroke="var(--stroke-0, black)" stroke-width="0.25" stroke-miterlimit="10"/>
</g>
<path id="Vector_10" d="M11.273 1.40079C11.273 1.40079 11.4806 1.16097 11.8731 1.21094C12.2655 1.26091 12.1687 1.71548 12.0209 2.01165C11.8731 2.30783 8.14969 9.9715 5.45502 18.6159C2.76036 27.2604 2.96639 36.4973 2.96639 37H0.00197056C-0.0384347 36.0951 0.523174 27.3983 3.4899 18.6159C6.45663 9.83343 10.8798 1.70602 11.273 1.40079Z" fill="var(--fill-0, white)"/>
</g>
<defs>
<clipPath id="clip0_0_4">
<rect width="105.37" height="37" fill="white"/>
</clipPath>
</defs>
</svg>
