<svg preserveAspectRatio="none" width="100%" height="100%" overflow="visible" style="display: block;" viewBox="0 0 378.153 116.075" fill="none" xmlns="http://www.w3.org/2000/svg">
<g id="Vector">
<path d="M26.5374 109.445V102.815H33.1851V76.2598H26.5374V69.6299H13.2776V109.445H26.5374ZM0 116.075V63H33.1851V69.6299H39.8149V76.2598H46.4448V102.815H39.8149V109.445H33.1851V116.075H0Z" fill="var(--fill-0, #F8F2DA)"/>
<path d="M56.3896 116.075V63H102.834V69.6299H69.6672V82.9075H89.5747V89.5374H69.6672V109.445H102.834V116.075H56.3896Z" fill="var(--fill-0, #F8F2DA)"/>
<path d="M112.779 116.075V63H159.224V69.6299H126.057V82.9075H145.964V89.5374H126.057V116.075H112.779Z" fill="var(--fill-0, #F8F2DA)"/>
<path d="M175.799 116.075V109.445H169.169V63H182.447V109.445H202.354V63H215.614V109.445H208.984V116.075H175.799Z" fill="var(--fill-0, #F8F2DA)"/>
<path d="M232.188 116.075V109.445H225.559V102.815H238.836V109.445H258.744V89.5374H232.188V82.9075H225.559V69.6299H232.188V63H265.374V69.6299H272.003V76.2598H258.744V69.6299H238.836V82.9075H265.374V89.5374H272.003V109.445H265.374V116.075H232.188Z" fill="var(--fill-0, #F8F2DA)"/>
<path d="M315.133 89.5374V76.2598H308.486V69.6299H301.856V76.2598H295.226V89.5374H315.133ZM281.948 116.075V76.2598H288.578V69.6299H295.226V63H315.133V69.6299H321.763V76.2598H328.393V116.075H315.133V96.1672H295.226V116.075H281.948Z" fill="var(--fill-0, #F8F2DA)"/>
<path d="M338.338 116.075V63H351.615V109.445H378.153V116.075H338.338Z" fill="var(--fill-0, #F8F2DA)"/>
<path d="M33.1851 46.4448V26.5374H13.2776V46.4448H33.1851ZM33.1851 19.9075V6.62988H13.2776V19.9075H33.1851ZM0 53.0747V0H39.8149V6.62988H46.4448V19.9075H39.8149V26.5374H46.4448V46.4448H39.8149V53.0747H0Z" fill="var(--fill-0, #F8F2DA)"/>
<path d="M56.3896 53.0747V0H69.6672V46.4448H96.2046V53.0747H56.3896Z" fill="var(--fill-0, #F8F2DA)"/>
<path d="M106.149 53.0747V46.4448H119.427V6.62988H106.149V0H145.964V6.62988H132.687V46.4448H145.964V53.0747H106.149Z" fill="var(--fill-0, #F8F2DA)"/>
<path d="M155.909 53.0747V0H162.539V6.62988H169.187V13.2598H175.817V19.9075H182.447V26.5374H189.094V0H202.354V53.0747H195.724V46.4448H189.094V39.8149H182.447V33.1672H175.817V26.5374H169.187V53.0747H155.909Z" fill="var(--fill-0, #F8F2DA)"/>
<path d="M238.836 46.4448V39.8149H245.484V13.2598H238.836V6.62988H225.576V46.4448H238.836ZM212.299 53.0747V0H245.484V6.62988H252.114V13.2598H258.744V39.8149H252.114V46.4448H245.484V53.0747H212.299Z" fill="var(--fill-0, #F8F2DA)"/>
</g>
</svg>
