<svg preserveAspectRatio="none" width="100%" height="100%" overflow="visible" style="display: block;" viewBox="0 0 326 100" fill="none" xmlns="http://www.w3.org/2000/svg">
<g id="Vector">
<path d="M22.8775 94.2883V88.5765H28.6084V65.6989H22.8775V59.9871H11.4464V94.2883H22.8775ZM0 100V54.2754H28.6084V59.9871H34.3239V65.6989H40.0394V88.5765H34.3239V94.2883H28.6084V100H0Z" fill="var(--fill-0, #F8F2DA)"/>
<path d="M48.6127 100V54.2754H88.6521V59.9871H60.0591V71.426H77.221V77.1377H60.0591V94.2883H88.6521V100H48.6127Z" fill="var(--fill-0, #F8F2DA)"/>
<path d="M97.2254 100V54.2754H137.265V59.9871H108.672V71.426H125.834V77.1377H108.672V100H97.2254Z" fill="var(--fill-0, #F8F2DA)"/>
<path d="M151.554 100V94.2883H145.838V54.2754H157.284V94.2883H174.446V54.2754H185.877V94.2883H180.162V100H151.554Z" fill="var(--fill-0, #F8F2DA)"/>
<path d="M200.166 100V94.2883H194.451V88.5765H205.897V94.2883H223.059V77.1377H200.166V71.426H194.451V59.9871H200.166V54.2754H228.775V59.9871H234.49V65.6989H223.059V59.9871H205.897V71.426H228.775V77.1377H234.49V94.2883H228.775V100H200.166Z" fill="var(--fill-0, #F8F2DA)"/>
<path d="M271.672 77.1377V65.6989H265.941V59.9871H260.225V65.6989H254.51V77.1377H271.672ZM243.063 100V65.6989H248.779V59.9871H254.51V54.2754H271.672V59.9871H277.387V65.6989H283.103V100H271.672V82.8494H254.51V100H243.063Z" fill="var(--fill-0, #F8F2DA)"/>
<path d="M291.676 100V54.2754H303.123V94.2883H326V100H291.676Z" fill="var(--fill-0, #F8F2DA)"/>
<path d="M28.6084 40.0129V22.8623H11.4464V40.0129H28.6084ZM28.6084 17.1506V5.71174H11.4464V17.1506H28.6084ZM0 45.7246V0H34.3239V5.71174H40.0394V17.1506H34.3239V22.8623H40.0394V40.0129H34.3239V45.7246H0Z" fill="var(--fill-0, #F8F2DA)"/>
<path d="M48.6127 45.7246V0H60.0591V40.0129H82.9366V45.7246H48.6127Z" fill="var(--fill-0, #F8F2DA)"/>
<path d="M91.5098 45.7246V40.0129H102.956V5.71174H91.5098V0H125.834V5.71174H114.387V40.0129H125.834V45.7246H91.5098Z" fill="var(--fill-0, #F8F2DA)"/>
<path d="M134.407 45.7246V0H140.123V5.71174H145.853V11.4235H151.569V17.1506H157.284V22.8623H163.015V0H174.446V45.7246H168.731V40.0129H163.015V34.3011H157.284V28.574H151.569V22.8623H145.853V45.7246H134.407Z" fill="var(--fill-0, #F8F2DA)"/>
<path d="M205.897 40.0129V34.3011H211.628V11.4235H205.897V5.71174H194.466V40.0129H205.897ZM183.02 45.7246V0H211.628V5.71174H217.344V11.4235H223.059V34.3011H217.344V40.0129H211.628V45.7246H183.02Z" fill="var(--fill-0, #F8F2DA)"/>
</g>
</svg>
