<svg preserveAspectRatio="none" width="100%" height="100%" overflow="visible" style="display: block;" viewBox="0 0 250 64" fill="none" xmlns="http://www.w3.org/2000/svg">
<g id="CAMPFIRE" filter="url(#filter0_d_0_4)">
<path d="M19.8275 8.13278C17.4201 8.13278 15.8578 9.86261 15.1407 13.3223C14.4236 16.7819 14.0651 21.6616 14.0651 27.9613C14.0651 31.1111 14.1419 33.9253 14.2955 36.4039C14.4492 38.8308 14.7309 40.8963 15.1407 42.6003C15.5505 44.3043 16.1139 45.5952 16.831 46.473C17.5993 47.3509 18.5982 47.7898 19.8275 47.7898C21.7739 47.7898 23.1825 46.7312 24.0533 44.6141C24.924 42.4454 25.3594 39.3213 25.3594 35.242H35.5013C35.5013 38.5984 35.2196 41.5675 34.6561 44.1494C34.1439 46.6796 33.2732 48.8225 32.0438 50.5781C30.8145 52.3338 29.201 53.6505 27.2034 54.5284C25.2058 55.4062 22.7471 55.8451 19.8275 55.8451C16.4469 55.8451 13.7065 55.1996 11.6064 53.9087C9.55755 52.6178 7.96968 50.7847 6.8428 48.4094C5.71592 45.9825 4.9476 43.0392 4.53783 39.5795C4.17928 36.1199 4 32.2471 4 27.9613C4 23.6754 4.20489 19.8027 4.61466 16.343C5.07565 12.8834 5.8952 9.94006 7.0733 7.51314C8.2514 5.08622 9.9161 3.22729 12.0674 1.93637C14.2187 0.645458 16.9847 0 20.3653 0C23.2337 0 25.6411 0.46473 27.5876 1.39419C29.534 2.32365 31.0962 3.69202 32.2743 5.49931C33.4524 7.25496 34.272 9.4237 34.733 12.0055C35.2452 14.5357 35.5013 17.4274 35.5013 20.6805H25.3594C25.3594 16.5496 24.924 13.4255 24.0533 11.3084C23.1825 9.19133 21.7739 8.13278 19.8275 8.13278Z" fill="var(--fill-0, white)"/>
<path d="M63.9335 0.852004L68.774 55.0705H59.0931L58.1711 44.2268H49.028L48.106 55.0705H38.4251L43.2656 0.852004H63.9335ZM57.4028 36.0941L55.0209 8.98479H52.1781L49.7963 36.0941H57.4028Z" fill="var(--fill-0, white)"/>
<path d="M98.0999 0.852004H111.392V55.0705H101.711V24.7856L94.4888 55.0705H90.0325L82.8103 24.7856V55.0705H73.1294V0.852004H86.4214L92.2607 26.7994L98.0999 0.852004Z" fill="var(--fill-0, white)"/>
<path d="M131.996 0.852004C136.299 0.955279 139.5 2.47856 141.6 5.42185C143.752 8.31351 144.827 12.2121 144.827 17.1176C144.827 22.2812 143.496 26.2831 140.832 29.1231C138.22 31.9631 134.276 33.3831 129 33.3831H127.079V55.0705H117.398V0.852004H131.996ZM129.077 25.2503C130.869 25.2503 132.252 24.5533 133.226 23.1591C134.199 21.7649 134.685 19.751 134.685 17.1176C134.685 14.639 134.276 12.6768 133.456 11.231C132.637 9.73352 131.33 8.98479 129.538 8.98479H127.079V25.2503H129.077Z" fill="var(--fill-0, white)"/>
<path d="M172.742 0.852004V8.98479H158.067V27.3416H169.054V35.4744H158.067V55.0705H148.386V0.852004H172.742Z" fill="var(--fill-0, white)"/>
<path d="M175.998 55.0705V0.852004H185.679V55.0705H175.998Z" fill="var(--fill-0, white)"/>
<path d="M233.707 8.98479V18.047H242.312V26.1798H233.707V34.0028H246V42.1356H224.026V0.852004H246V8.98479H233.707ZM209.658 31.6791C211.041 34.3642 212.475 36.7137 213.961 38.7275C215.498 40.6897 217.239 42.3421 219.185 43.6847C221.183 45.0272 223.462 46.0341 226.024 46.7054C228.636 47.3767 231.684 47.7123 235.167 47.7123C236.703 47.7123 238.317 47.6607 240.007 47.5574C241.749 47.4025 243.593 47.1959 245.539 46.9378V55.0705C240.929 55.6902 236.831 56 233.246 56C228.841 56 224.999 55.5611 221.721 54.6833C218.494 53.8054 215.626 52.4887 213.116 50.7331C210.657 48.9774 208.48 46.7829 206.585 44.1494C204.741 41.5159 202.999 38.4177 201.36 34.8548V55.0705H191.679V0.852004H206.354C208.557 0.852004 210.478 1.2651 212.117 2.09129C213.807 2.86584 215.19 3.95021 216.266 5.3444C217.393 6.73859 218.212 8.39096 218.724 10.3015C219.288 12.2121 219.57 14.2775 219.57 16.4979C219.57 20.0609 218.75 23.2107 217.111 25.9474C215.472 28.6842 212.988 30.5947 209.658 31.6791ZM203.819 24.4758C205.714 24.4758 207.123 23.7271 208.045 22.2296C209.018 20.6805 209.505 18.7183 209.505 16.343C209.505 14.1743 209.069 12.4186 208.198 11.0761C207.379 9.68188 206.098 8.98479 204.357 8.98479H201.36V24.4758H203.819Z" fill="var(--fill-0, white)"/>
</g>
<defs>
<filter id="filter0_d_0_4" x="0" y="0" width="250" height="64" filterUnits="userSpaceOnUse" color-interpolation-filters="sRGB">
<feFlood flood-opacity="0" result="BackgroundImageFix"/>
<feColorMatrix in="SourceAlpha" type="matrix" values="0 0 0 0 0 0 0 0 0 0 0 0 0 0 0 0 0 0 127 0" result="hardAlpha"/>
<feOffset dy="4"/>
<feGaussianBlur stdDeviation="2"/>
<feComposite in2="hardAlpha" operator="out"/>
<feColorMatrix type="matrix" values="0 0 0 0 0 0 0 0 0 0 0 0 0 0 0 0 0 0 0.25 0"/>
<feBlend mode="normal" in2="BackgroundImageFix" result="effect1_dropShadow_0_4"/>
<feBlend mode="normal" in="SourceGraphic" in2="effect1_dropShadow_0_4" result="shape"/>
</filter>
</defs>
</svg>
