<svg preserveAspectRatio="none" width="100%" height="100%" overflow="visible" style="display: block;" viewBox="0 0 200.816 53.8717" fill="none" xmlns="http://www.w3.org/2000/svg">
<g id="Group 309">
<g id="DooM">
<path d="M15.0857 0.865396L19.2055 3.34939V33.1573L0.727023 47.9401L1.2117 46.789V2.38002L0 0.865396H15.0857ZM7.87608 8.01445V31.3398L11.9353 28.2499V8.01445H7.87608Z" fill="var(--fill-0, white)"/>
<path d="M40.0473 0.865396L42.7736 3.59173V31.2792L32.7771 38.61L24.3557 31.885V3.77348L26.9609 0.865396H40.0473ZM31.323 8.07504V26.9776L35.3822 30.431V8.07504H31.323Z" fill="var(--fill-0, white)"/>
<path d="M62.7786 0.865396L65.5049 3.59173V31.2792L55.5084 38.61L47.087 31.885V3.77348L49.6922 0.865396H62.7786ZM54.0543 8.07504V30.431L58.1135 26.9776V8.07504H54.0543Z" fill="var(--fill-0, white)"/>
<path d="M69.8183 2.62237L68.6672 0.865396H76.6644L80.4207 10.4379L83.9347 0.865396H91.6896L91.2049 2.31944V46.3649L91.9925 50L88.0544 47.0919L83.9347 44.0021L84.904 42.6086V26.4929L80.4813 38.5494L75.9374 22.3731V38.0041L69.3942 33.0967L69.8183 32.7332V2.62237Z" fill="var(--fill-0, white)"/>
</g>
<g id="Group 307" filter="url(#filter0_d_0_6)">
<rect id="Rectangle 1029" x="99.8798" width="96.9363" height="45.8717" rx="8" fill="var(--fill-0, #FF285B)"/>
<g id="PDF">
<path d="M110.262 38.0817V7.86776H122.182C124.474 7.86776 126.426 8.30543 128.039 9.18077C129.652 10.0463 130.881 11.2511 131.727 12.7952C132.583 14.3295 133.011 16.0999 133.011 18.1063C133.011 20.1127 132.578 21.883 131.712 23.4173C130.847 24.9516 129.593 26.1466 127.95 27.0023C126.318 27.8579 124.341 28.2858 122.02 28.2858H114.422V23.1665H120.987C122.216 23.1665 123.229 22.955 124.026 22.5321C124.833 22.0994 125.432 21.5043 125.826 20.747C126.229 19.9799 126.431 19.0996 126.431 18.1063C126.431 17.1031 126.229 16.2277 125.826 15.4803C125.432 14.7229 124.833 14.1377 124.026 13.7247C123.22 13.3017 122.197 13.0903 120.957 13.0903H116.65V38.0817H110.262Z" fill="var(--fill-0, white)"/>
<path d="M147.87 38.0817H137.16V7.86776H147.959C150.998 7.86776 153.614 8.47263 155.807 9.68237C158.001 10.8823 159.687 12.6084 160.868 14.8606C162.058 17.1129 162.653 19.8078 162.653 22.9452C162.653 26.0925 162.058 28.7972 160.868 31.0593C159.687 33.3214 157.991 35.0573 155.778 36.2671C153.575 37.4768 150.939 38.0817 147.87 38.0817ZM143.548 32.6084H147.605C149.493 32.6084 151.082 32.274 152.37 31.6052C153.668 30.9265 154.642 29.8791 155.291 28.4628C155.95 27.0367 156.28 25.1975 156.28 22.9452C156.28 20.7126 155.95 18.8882 155.291 17.4719C154.642 16.0556 153.673 15.0131 152.385 14.3443C151.096 13.6755 149.508 13.3411 147.62 13.3411H143.548V32.6084Z" fill="var(--fill-0, white)"/>
<path d="M167.385 38.0817V7.86776H187.39V13.1345H173.773V20.334H186.062V25.6007H173.773V38.0817H167.385Z" fill="var(--fill-0, white)"/>
</g>
</g>
</g>
<defs>
<filter id="filter0_d_0_6" x="95.8798" y="0" width="104.936" height="53.8717" filterUnits="userSpaceOnUse" color-interpolation-filters="sRGB">
<feFlood flood-opacity="0" result="BackgroundImageFix"/>
<feColorMatrix in="SourceAlpha" type="matrix" values="0 0 0 0 0 0 0 0 0 0 0 0 0 0 0 0 0 0 127 0" result="hardAlpha"/>
<feOffset dy="4"/>
<feGaussianBlur stdDeviation="2"/>
<feComposite in2="hardAlpha" operator="out"/>
<feColorMatrix type="matrix" values="0 0 0 0 0 0 0 0 0 0 0 0 0 0 0 0 0 0 0.25 0"/>
<feBlend mode="normal" in2="BackgroundImageFix" result="effect1_dropShadow_0_6"/>
<feBlend mode="normal" in="SourceGraphic" in2="effect1_dropShadow_0_6" result="shape"/>
</filter>
</defs>
</svg>
