<svg preserveAspectRatio="none" width="100%" height="100%" overflow="visible" style="display: block;" viewBox="0 0 231.4 61" fill="none" xmlns="http://www.w3.org/2000/svg">
<g id="Group 309">
<g id="DooM">
<path d="M17.43 1.00001L22.19 3.87001V38.31L0.84 55.39L1.4 54.06V2.75001L0 1.00001H17.43ZM9.1 9.26001V36.21L13.79 32.64V9.26001H9.1Z" fill="var(--fill-0, white)"/>
<path d="M46.2705 1.00001L49.4205 4.15001V36.14L37.8705 44.61L28.1405 36.84V4.36001L31.1505 1.00001H46.2705ZM36.1905 9.33001V31.17L40.8805 35.16V9.33001H36.1905Z" fill="var(--fill-0, white)"/>
<path d="M72.5342 1.00001L75.6842 4.15001V36.14L64.1342 44.61L54.4042 36.84V4.36001L57.4142 1.00001H72.5342ZM62.4542 9.33001V35.16L67.1442 31.17V9.33001H62.4542Z" fill="var(--fill-0, white)"/>
<path d="M80.6679 3.03001L79.3379 1.00001H88.5779L92.9179 12.06L96.9779 1.00001H105.938L105.378 2.68001V53.57L106.288 57.77L101.738 54.41L96.9779 50.84L98.0979 49.23V30.61L92.9879 44.54L87.7379 25.85V43.91L80.1779 38.24L80.6679 37.82V3.03001Z" fill="var(--fill-0, white)"/>
</g>
<g id="Group 307" filter="url(#filter0_d_0_4)">
<rect id="Rectangle 1029" x="115.4" width="112" height="53" rx="8" fill="var(--fill-0, #FF285B)"/>
<g id="PDF">
<path d="M127.395 44V9.09092H141.168C143.815 9.09092 146.071 9.59661 147.935 10.608C149.798 11.608 151.219 13 152.196 14.7841C153.185 16.5568 153.679 18.6023 153.679 20.9205C153.679 23.2387 153.179 25.2841 152.179 27.0568C151.179 28.8296 149.73 30.2102 147.833 31.1989C145.946 32.1875 143.662 32.6818 140.98 32.6818H132.202V26.7671H139.787C141.208 26.7671 142.378 26.5227 143.298 26.0341C144.23 25.5341 144.923 24.8466 145.378 23.9716C145.844 23.0852 146.077 22.0682 146.077 20.9205C146.077 19.7614 145.844 18.75 145.378 17.8864C144.923 17.0114 144.23 16.3352 143.298 15.858C142.367 15.3693 141.185 15.125 139.753 15.125H134.776V44H127.395Z" fill="var(--fill-0, white)"/>
<path d="M170.848 44H158.473V9.09092H170.95C174.462 9.09092 177.485 9.78979 180.019 11.1875C182.553 12.5739 184.502 14.5682 185.865 17.1705C187.24 19.7727 187.928 22.8864 187.928 26.5114C187.928 30.1477 187.24 33.2727 185.865 35.8864C184.502 38.5 182.541 40.5057 179.985 41.9034C177.439 43.3012 174.394 44 170.848 44ZM165.854 37.6762H170.541C172.723 37.6762 174.558 37.2898 176.047 36.5171C177.547 35.733 178.672 34.5227 179.422 32.8864C180.183 31.2387 180.564 29.1137 180.564 26.5114C180.564 23.9318 180.183 21.8239 179.422 20.1875C178.672 18.5512 177.553 17.3466 176.064 16.5739C174.575 15.8012 172.74 15.4148 170.558 15.4148H165.854V37.6762Z" fill="var(--fill-0, white)"/>
<path d="M193.395 44V9.09092H216.509V15.1762H200.776V23.4943H214.975V29.5796H200.776V44H193.395Z" fill="var(--fill-0, white)"/>
</g>
</g>
</g>
<defs>
<filter id="filter0_d_0_4" x="111.4" y="0" width="120" height="61" filterUnits="userSpaceOnUse" color-interpolation-filters="sRGB">
<feFlood flood-opacity="0" result="BackgroundImageFix"/>
<feColorMatrix in="SourceAlpha" type="matrix" values="0 0 0 0 0 0 0 0 0 0 0 0 0 0 0 0 0 0 127 0" result="hardAlpha"/>
<feOffset dy="4"/>
<feGaussianBlur stdDeviation="2"/>
<feComposite in2="hardAlpha" operator="out"/>
<feColorMatrix type="matrix" values="0 0 0 0 0 0 0 0 0 0 0 0 0 0 0 0 0 0 0.25 0"/>
<feBlend mode="normal" in2="BackgroundImageFix" result="effect1_dropShadow_0_4"/>
<feBlend mode="normal" in="SourceGraphic" in2="effect1_dropShadow_0_4" result="shape"/>
</filter>
</defs>
</svg>
