<svg preserveAspectRatio="none" width="100%" height="100%" overflow="visible" style="display: block;" viewBox="0 0 234.297 82.5863" fill="none" xmlns="http://www.w3.org/2000/svg">
<g id="Oblique">
<path id="97 98" d="M213.017 0L203.015 0.745518L201.159 2.60793L211.161 1.86241L213.017 0Z" fill="var(--fill-0, black)"/>
<path id="98 99" d="M214.371 18.3011L213.017 2.1033e-05L211.161 1.86243L212.516 20.1635L214.371 18.3011Z" fill="var(--fill-0, black)"/>
<path id="100 101" d="M226.174 27.3231L227.32 17.3361L225.464 19.1985L224.318 29.1855L226.174 27.3231Z" fill="var(--fill-0, black)"/>
<path id="99 100" d="M227.32 17.3361L214.371 18.3012L212.516 20.1636L225.464 19.1985L227.32 17.3361Z" fill="var(--fill-0, black)"/>
<path id="108 87" d="M232.961 32.8886L223.55 35.5518L221.694 37.4142L231.105 34.7511L232.961 32.8886Z" fill="var(--fill-0, black)"/>
<path id="101 102" d="M215.1 28.1486L226.173 27.3232L224.318 29.1856L213.244 30.011L215.1 28.1486Z" fill="var(--fill-0, black)"/>
<path id="87 88" d="M234.253 50.3536L232.961 32.8886L231.105 34.7511L232.398 52.2161L234.253 50.3536Z" fill="var(--fill-0, black)"/>
<path id="86 75" d="M197.907 1.12634L187.906 1.87186L186.05 3.73427L196.052 2.98875L197.907 1.12634Z" fill="var(--fill-0, black)"/>
<path id="88 89" d="M233.594 56.0076C234.18 54.2202 234.4 52.3356 234.253 50.3538L232.397 52.2162C232.544 54.1981 232.324 56.0827 231.738 57.87L233.594 56.0076Z" fill="var(--fill-0, black)"/>
<path id="107 108" d="M223.55 35.5517L224.74 51.6232L222.884 53.4856L221.694 37.4141L223.55 35.5517Z" fill="var(--fill-0, black)"/>
<path id="96 97" d="M203.015 0.745346L206.838 52.3971L204.982 54.2596L201.159 2.60776L203.015 0.745346Z" fill="var(--fill-0, black)"/>
<path id="102 103" d="M216.881 52.2095L215.1 28.1487L213.244 30.0111L215.025 54.0719L216.881 52.2095Z" fill="var(--fill-0, black)"/>
<path id="89 90" d="M230.984 60.7794C232.138 59.3856 233.008 57.7951 233.594 56.0077L231.739 57.8701C231.152 59.6575 230.282 61.248 229.128 62.6418L230.984 60.7794Z" fill="var(--fill-0, black)"/>
<path id="85 86" d="M187.906 1.87191L190.009 30.299L188.154 32.1614L186.05 3.73432L187.906 1.87191Z" fill="var(--fill-0, black)"/>
<path id="82 83" d="M180.494 2.42441L170.492 3.16993L168.636 5.03234L178.638 4.28682L180.494 2.42441Z" fill="var(--fill-0, black)"/>
<path id="106 107" d="M224.739 51.6235C224.822 52.7382 224.506 53.727 223.791 54.5899L221.936 56.4523C222.65 55.5894 222.966 54.6006 222.883 53.4859L224.739 51.6235Z" fill="var(--fill-0, black)"/>
<path id="90 156" d="M230.325 61.4877C230.552 61.2594 230.772 61.0232 230.984 60.7793L229.128 62.6417C228.916 62.8856 228.696 63.1218 228.469 63.3502L230.325 61.4877Z" fill="var(--fill-0, black)"/>
<path id="105 106" d="M221.106 55.9112C222.019 55.8431 222.804 55.5131 223.462 54.9212L223.792 54.59C223.685 54.7083 223.575 54.8187 223.462 54.9212L221.936 56.4525C221.217 57.2533 220.322 57.6937 219.25 57.7736L221.106 55.9112Z" fill="var(--fill-0, black)"/>
<path id="75 76" d="M202.713 66.0627L197.908 1.12634L196.052 2.98875L200.858 67.9251L202.713 66.0627Z" fill="var(--fill-0, black)"/>
<path id="156 91" d="M226.828 64.0783C228.142 63.3712 229.306 62.5097 230.318 61.4938L228.469 63.3503C227.454 64.3687 226.289 65.2322 224.972 65.9407L226.828 64.0783Z" fill="var(--fill-0, black)"/>
<path id="83 84" d="M182.597 30.8515L180.493 2.42441L178.638 4.28682L180.742 32.7139L182.597 30.8515Z" fill="var(--fill-0, black)"/>
<path id="104 105" d="M221.106 55.9111C220.094 55.9865 219.143 55.6837 218.255 55.0027L216.399 56.8651C217.287 57.5461 218.238 57.8489 219.25 57.7735L221.106 55.9111Z" fill="var(--fill-0, black)"/>
<path id="103 104" d="M218.255 55.0026C217.421 54.2552 216.963 53.3241 216.881 52.2093L215.025 54.0717C215.107 55.1865 215.565 56.1176 216.399 56.865L218.255 55.0026Z" fill="var(--fill-0, black)"/>
<path id="91 92" d="M221.552 65.5925C223.457 65.4505 225.216 64.9458 226.828 64.0784L224.972 65.9408C223.36 66.8082 221.601 67.3129 219.696 67.4549L221.552 65.5925Z" fill="var(--fill-0, black)"/>
<path id="84 85" d="M190.01 30.2986L182.598 30.8511L180.742 32.7135L188.154 32.161L190.01 30.2986Z" fill="var(--fill-0, black)"/>
<path id="92 93" d="M216.201 64.8702C217.923 65.4892 219.707 65.7299 221.553 65.5923L219.697 67.4547C217.851 67.5923 216.068 67.3516 214.346 66.7326L216.201 64.8702Z" fill="var(--fill-0, black)"/>
<path id="136 137" d="M165.903 3.51177L149.739 4.7166L147.883 6.57901L164.047 5.37418L165.903 3.51177Z" fill="var(--fill-0, black)"/>
<path id="95 96" d="M206.838 52.3974C206.984 54.3793 207.479 56.2106 208.322 57.8915L206.466 59.7539C205.623 58.073 205.129 56.2417 204.982 54.2599L206.838 52.3974Z" fill="var(--fill-0, black)"/>
<path id="93 94" d="M211.605 62.2239C212.947 63.3693 214.479 64.2515 216.201 64.8705L214.345 66.7329C212.623 66.1139 211.091 65.2317 209.75 64.0863L211.605 62.2239Z" fill="var(--fill-0, black)"/>
<path id="94 95" d="M208.322 57.8913C209.164 59.5722 210.259 61.0163 211.605 62.2237L209.75 64.0861C208.403 62.8787 207.309 61.4346 206.466 59.7537L208.322 57.8913Z" fill="var(--fill-0, black)"/>
<path id="137 109" d="M167.924 30.8239L165.903 3.51177L164.047 5.37418L166.068 32.6863L167.924 30.8239Z" fill="var(--fill-0, black)"/>
<path id="78 79" d="M183.32 40.6058L190.732 40.0533L188.876 41.9157L181.464 42.4682L183.32 40.6058Z" fill="var(--fill-0, black)"/>
<path id="135 136" d="M149.738 4.71674C148.191 4.83214 146.755 5.25059 145.431 5.97196L143.576 7.83437C144.899 7.113 146.335 6.69455 147.883 6.57915L149.738 4.71674Z" fill="var(--fill-0, black)"/>
<path id="147 138" d="M152.871 14.2911L156.622 14.0115L154.766 15.8739L151.016 16.1535L152.871 14.2911Z" fill="var(--fill-0, black)"/>
<path id="77 78" d="M190.732 40.0533L192.712 66.8082L190.856 68.6706L188.876 41.9157L190.732 40.0533Z" fill="var(--fill-0, black)"/>
<path id="81 82" d="M170.492 3.16949L175.298 68.1058L173.442 69.9682L168.636 5.0319L170.492 3.16949Z" fill="var(--fill-0, black)"/>
<path id="159 135" d="M145.431 5.97193C144.423 6.52152 143.528 7.18915 142.745 7.97488L140.895 9.83152C141.676 9.04829 142.57 8.38259 143.576 7.83434L145.431 5.97193Z" fill="var(--fill-0, black)"/>
<path id="138 160" d="M150.735 15.2737C151.326 14.6807 152.039 14.3532 152.872 14.2911L151.016 16.1535C150.183 16.2156 149.471 16.5432 148.879 17.1361L150.735 15.2737Z" fill="var(--fill-0, black)"/>
<path id="160 139" d="M150.371 15.6921C150.487 15.5411 150.607 15.4022 150.734 15.2755L148.879 17.1364C148.752 17.2636 148.631 17.4029 148.516 17.5545L150.371 15.6921Z" fill="var(--fill-0, black)"/>
<path id="146 147" d="M156.622 14.0115L157.977 32.3126L156.121 34.175L154.767 15.8739L156.622 14.0115Z" fill="var(--fill-0, black)"/>
<path id="109 110" d="M167.258 36.3848C167.844 34.5975 168.066 32.7436 167.924 30.8237L166.068 32.6861C166.21 34.606 165.988 36.4599 165.402 38.2472L167.258 36.3848Z" fill="var(--fill-0, black)"/>
<path id="134 159" d="M142.746 7.9749C142.501 8.2205 142.268 8.47764 142.045 8.74632L140.189 10.6087C140.412 10.34 140.645 10.0829 140.89 9.83731L142.746 7.9749Z" fill="var(--fill-0, black)"/>
<path id="139 140" d="M149.499 18.4657C149.421 17.4129 149.712 16.4882 150.371 15.6918L148.516 17.5542C147.856 18.3506 147.565 19.2753 147.643 20.3281L149.499 18.4657Z" fill="var(--fill-0, black)"/>
<path id="76 77" d="M192.711 66.808L202.713 66.0625L200.857 67.9249L190.855 68.6704L192.711 66.808Z" fill="var(--fill-0, black)"/>
<path id="79 80" d="M185.3 67.3604L183.32 40.6055L181.464 42.4679L183.444 69.2228L185.3 67.3604Z" fill="var(--fill-0, black)"/>
<path id="133 134" d="M142.045 8.74595C141.111 9.87422 140.399 11.1729 139.909 12.6416L138.053 14.5041C138.543 13.0353 139.255 11.7366 140.189 10.6084L142.045 8.74595Z" fill="var(--fill-0, black)"/>
<path id="110 111" d="M164.647 41.1566C165.801 39.7628 166.671 38.1723 167.257 36.385L165.402 38.2474C164.816 40.0347 163.945 41.6252 162.792 43.019L164.647 41.1566Z" fill="var(--fill-0, black)"/>
<path id="132 133" d="M139.909 12.6419C139.419 14.1107 139.234 15.6502 139.353 17.2604L137.497 19.1228C137.378 17.5126 137.564 15.9731 138.054 14.5043L139.909 12.6419Z" fill="var(--fill-0, black)"/>
<path id="140 141" d="M150.572 32.9581L149.499 18.4658L147.644 20.3282L148.716 34.8205L150.572 32.9581Z" fill="var(--fill-0, black)"/>
<path id="145 146" d="M157.977 32.3126C158.055 33.3655 157.734 34.2924 157.015 35.0932L155.159 36.9557C155.878 36.1548 156.199 35.2279 156.121 34.175L157.977 32.3126Z" fill="var(--fill-0, black)"/>
<path id="111 157" d="M163.785 42.1078C164.085 41.8058 164.373 41.4887 164.648 41.1568L162.792 43.0192C162.517 43.3511 162.23 43.6682 161.929 43.9703L163.785 42.1078Z" fill="var(--fill-0, black)"/>
<path id="72 73" d="M133.924 5.89549L123.922 6.64101L122.066 8.50342L132.068 7.7579L133.924 5.89549Z" fill="var(--fill-0, black)"/>
<path id="161 145" d="M157.015 35.0935C156.933 35.1935 156.847 35.2878 156.759 35.3765L154.904 37.2375C154.992 37.1492 155.077 37.0554 155.16 36.9559L157.015 35.0935Z" fill="var(--fill-0, black)"/>
<path id="144 161" d="M156.759 35.3763C156.143 35.9934 155.393 36.3351 154.508 36.4011L152.652 38.2635C153.537 38.1975 154.287 37.8559 154.903 37.2387L156.759 35.3763Z" fill="var(--fill-0, black)"/>
<path id="157 112" d="M160.498 44.5486C161.723 43.8893 162.816 43.078 163.777 42.1146L161.928 43.9701C160.966 44.9365 159.871 45.7501 158.643 46.411L160.498 44.5486Z" fill="var(--fill-0, black)"/>
<path id="143 144" d="M154.508 36.4011L154.419 36.4078L152.563 38.2702L152.653 38.2635L154.508 36.4011Z" fill="var(--fill-0, black)"/>
<path id="142 143" d="M154.419 36.408C153.407 36.4834 152.519 36.2071 151.754 35.5791L149.898 37.4415C150.663 38.0695 151.551 38.3458 152.564 38.2704L154.419 36.408Z" fill="var(--fill-0, black)"/>
<path id="141 142" d="M151.753 35.5788C151.043 34.8845 150.65 34.0108 150.572 32.958L148.716 34.8204C148.794 35.8732 149.188 36.7469 149.897 37.4413L151.753 35.5788Z" fill="var(--fill-0, black)"/>
<path id="118 119" d="M168.694 56.0812C167.851 54.4003 166.759 52.9872 165.417 51.8418L163.561 53.7042C164.903 54.8496 165.995 56.2627 166.838 57.9436L168.694 56.0812Z" fill="var(--fill-0, black)"/>
<path id="117 118" d="M165.416 51.8416C164.07 50.6342 162.536 49.721 160.814 49.102L158.958 50.9644C160.68 51.5834 162.214 52.4966 163.561 53.704L165.416 51.8416Z" fill="var(--fill-0, black)"/>
<path id="80 81" d="M175.298 68.1061L185.3 67.3605L183.444 69.223L173.442 69.9685L175.298 68.1061Z" fill="var(--fill-0, black)"/>
<path id="112 113" d="M155.223 46.0629C157.128 45.9209 158.887 45.4162 160.499 44.5487L158.643 46.4112C157.031 47.2786 155.272 47.7833 153.367 47.9253L155.223 46.0629Z" fill="var(--fill-0, black)"/>
<path id="119 120" d="M170.178 61.5752C170.031 59.5934 169.536 57.762 168.694 56.0812L166.838 57.9436C167.681 59.6244 168.175 61.4558 168.322 63.4376L170.178 61.5752Z" fill="var(--fill-0, black)"/>
<path id="116 117" d="M160.814 49.1023C159.092 48.4834 157.278 48.2449 155.373 48.3869L153.518 50.2493C155.423 50.1073 157.236 50.3458 158.958 50.9647L160.814 49.1023Z" fill="var(--fill-0, black)"/>
<path id="113 114" d="M151.471 45.8025C152.692 46.0712 153.943 46.1581 155.223 46.0626L153.367 47.925C152.087 48.0205 150.836 47.9336 149.615 47.6649L151.471 45.8025Z" fill="var(--fill-0, black)"/>
<path id="120 121" d="M170.687 68.4497L170.178 61.5751L168.322 63.4375L168.831 70.3121L170.687 68.4497Z" fill="var(--fill-0, black)"/>
<path id="115 116" d="M155.373 48.3868C154.101 48.4817 152.884 48.75 151.722 49.1919L149.866 51.0543C151.028 50.6124 152.245 50.3441 153.518 50.2493L155.373 48.3868Z" fill="var(--fill-0, black)"/>
<path id="114 115" d="M151.722 49.1917L151.471 45.8025L149.615 47.6649L149.866 51.0541L151.722 49.1917Z" fill="var(--fill-0, black)"/>
<path id="55 56" d="M118.302 14.8127C117.459 13.1319 116.367 11.7187 115.025 10.5732L113.169 12.4357C114.511 13.5811 115.603 14.9943 116.446 16.6751L118.302 14.8127Z" fill="var(--fill-0, black)"/>
<path id="54 55" d="M115.024 10.5735C113.678 9.36612 112.144 8.45295 110.422 7.83402L108.566 9.69643C110.288 10.3154 111.822 11.2285 113.169 12.4359L115.024 10.5735Z" fill="var(--fill-0, black)"/>
<path id="56 57" d="M119.786 20.3072C119.639 18.3254 119.144 16.494 118.302 14.8132L116.446 16.6756C117.289 18.3564 117.783 20.1878 117.93 22.1696L119.786 20.3072Z" fill="var(--fill-0, black)"/>
<path id="131 132" d="M139.353 17.2603L142.722 62.7828L140.866 64.6452L137.497 19.1228L139.353 17.2603Z" fill="var(--fill-0, black)"/>
<path id="53 54" d="M110.421 7.83405C108.699 7.21511 106.886 6.97664 104.981 7.11864L103.125 8.98105C105.03 8.83905 106.844 9.07752 108.566 9.69646L110.421 7.83405Z" fill="var(--fill-0, black)"/>
<path id="123 124" d="M158.774 59.1556C159.599 59.7791 160.052 60.6484 160.135 61.7631L158.279 63.6255C158.196 62.5108 157.743 61.6416 156.918 61.018L158.774 59.1556Z" fill="var(--fill-0, black)"/>
<path id="124 125" d="M156.102 58.234C157.114 58.1585 158.005 58.4658 158.774 59.1557L156.919 61.0181C156.149 60.3282 155.258 60.021 154.246 60.0964L156.102 58.234Z" fill="var(--fill-0, black)"/>
<path id="73 74" d="M138.73 70.8318L133.924 5.89549L132.068 7.7579L136.874 72.6942L138.73 70.8318Z" fill="var(--fill-0, black)"/>
<path id="121 122" d="M160.685 69.1951L170.687 68.4496L168.831 70.312L158.829 71.0575L160.685 69.1951Z" fill="var(--fill-0, black)"/>
<path id="125 158" d="M153.852 59.2589C154.468 58.6417 155.218 58.3001 156.103 58.2341L154.247 60.0965C153.362 60.1625 152.612 60.5041 151.997 61.1213L153.852 59.2589Z" fill="var(--fill-0, black)"/>
<path id="122 123" d="M160.135 61.7633L160.685 69.1952L158.829 71.0576L158.279 63.6257L160.135 61.7633Z" fill="var(--fill-0, black)"/>
<path id="70 53" d="M104.981 7.11858C103.135 7.25615 101.406 7.75866 99.7943 8.6261L97.9385 10.4885C99.5505 9.62107 101.279 9.11856 103.125 8.98099L104.981 7.11858Z" fill="var(--fill-0, black)"/>
<path id="158 126" d="M153.595 59.5418C153.677 59.4423 153.763 59.3484 153.85 59.2602L151.996 61.1212C151.908 61.2098 151.822 61.3041 151.739 61.4042L153.595 59.5418Z" fill="var(--fill-0, black)"/>
<path id="126 127" d="M152.723 62.3157C152.645 61.2629 152.936 60.3381 153.595 59.5417L151.739 61.4041C151.08 62.2006 150.789 63.1253 150.867 64.1781L152.723 62.3157Z" fill="var(--fill-0, black)"/>
<path id="60 61" d="M108.382 17.8876C109.211 18.5731 109.665 19.4423 109.742 20.4951L107.887 22.3575C107.809 21.3047 107.355 20.4355 106.526 19.75L108.382 17.8876Z" fill="var(--fill-0, black)"/>
<path id="61 62" d="M105.709 16.966C106.721 16.8905 107.612 17.1978 108.382 17.8877L106.526 19.7501C105.756 19.0602 104.866 18.7529 103.854 18.8284L105.709 16.966Z" fill="var(--fill-0, black)"/>
<path id="155 70" d="M99.7948 8.62614C98.5666 9.28703 97.4714 10.1007 96.5091 11.0671L94.6602 12.9226C95.6209 11.9592 96.7138 11.1479 97.939 10.4885L99.7948 8.62614Z" fill="var(--fill-0, black)"/>
<path id="71 72" d="M123.922 6.64081L128.728 71.5772L126.872 73.4396L122.066 8.50322L123.922 6.64081Z" fill="var(--fill-0, black)"/>
<path id="127 128" d="M153.273 69.7475L152.722 62.3155L150.867 64.1779L151.417 71.6099L153.273 69.7475Z" fill="var(--fill-0, black)"/>
<path id="62 154" d="M103.459 17.9906C104.074 17.3734 104.824 17.0318 105.709 16.9658L103.853 18.8283C102.968 18.8942 102.218 19.2358 101.603 19.853L103.459 17.9906Z" fill="var(--fill-0, black)"/>
<path id="154 63" d="M103.202 18.2736C103.284 18.174 103.37 18.0802 103.457 17.9919L101.603 19.8529C101.515 19.9416 101.429 20.0359 101.346 20.136L103.202 18.2736Z" fill="var(--fill-0, black)"/>
<path id="69 155" d="M96.5091 11.0672C96.2084 11.3692 95.9206 11.6862 95.6458 12.0181L93.79 13.8805C94.0648 13.5486 94.3526 13.2316 94.6533 12.9296L96.5091 11.0672Z" fill="var(--fill-0, black)"/>
<path id="63 64" d="M102.33 21.0477C102.252 19.9948 102.543 19.0702 103.202 18.2737L101.347 20.1361C100.687 20.9326 100.396 21.8572 100.474 22.9101L102.33 21.0477Z" fill="var(--fill-0, black)"/>
<path id="68 69" d="M95.6461 12.0181C94.4921 13.4119 93.622 15.0024 93.036 16.7898L91.1802 18.6522C91.7663 16.8648 92.6363 15.2743 93.7903 13.8805L95.6461 12.0181Z" fill="var(--fill-0, black)"/>
<path id="130 131" d="M142.722 62.783C142.728 63.059 142.741 63.3376 142.762 63.6188L140.906 65.4812C140.885 65.2 140.872 64.9214 140.866 64.6454L142.722 62.783Z" fill="var(--fill-0, black)"/>
<path id="128 129" d="M143.271 70.4932L153.273 69.7477L151.417 71.6101L141.415 72.3556L143.271 70.4932Z" fill="var(--fill-0, black)"/>
<path id="129 130" d="M142.762 63.6187L143.271 70.4933L141.415 72.3557L140.906 65.4811L142.762 63.6187Z" fill="var(--fill-0, black)"/>
<path id="57 58" d="M123.608 71.9589L119.785 20.3071L117.93 22.1695L121.752 73.8213L123.608 71.9589Z" fill="var(--fill-0, black)"/>
<path id="67 68" d="M93.0353 16.7897C92.4446 18.5151 92.2226 20.3687 92.3693 22.3506L90.5135 24.213C90.3668 22.2312 90.5888 20.3775 91.1795 18.6521L93.0353 16.7897Z" fill="var(--fill-0, black)"/>
<path id="35 36" d="M86.2438 16.3617C85.6072 15.0391 84.7459 13.92 83.6605 13.0045L81.8047 14.8669C82.8901 15.7824 83.7514 16.9015 84.388 18.2241L86.2438 16.3617Z" fill="var(--fill-0, black)"/>
<path id="34 35" d="M83.6608 13.0048C82.6303 12.023 81.4099 11.3045 79.9993 10.8491L78.1436 12.7115C79.5541 13.1669 80.7746 13.8854 81.805 14.8672L83.6608 13.0048Z" fill="var(--fill-0, black)"/>
<path id="36 37" d="M87.467 20.7542C87.3479 19.144 86.9401 17.6797 86.244 16.3616L84.3882 18.2241C85.0843 19.5422 85.4921 21.0064 85.6112 22.6166L87.467 20.7542Z" fill="var(--fill-0, black)"/>
<path id="33 34" d="M79.9996 10.8489C78.644 10.3272 77.2221 10.1218 75.7337 10.2327L73.8779 12.0951C75.3663 11.9842 76.7882 12.1896 78.1438 12.7113L79.9996 10.8489Z" fill="var(--fill-0, black)"/>
<path id="59 60" d="M109.742 20.4952L113.606 72.7044L111.75 74.5668L107.886 22.3576L109.742 20.4952Z" fill="var(--fill-0, black)"/>
<path id="74 71" d="M128.727 71.5771L138.729 70.8316L136.873 72.694L126.872 73.4395L128.727 71.5771Z" fill="var(--fill-0, black)"/>
<path id="64 65" d="M106.194 73.2569L102.33 21.0477L100.474 22.9101L104.338 75.1193L106.194 73.2569Z" fill="var(--fill-0, black)"/>
<path id="44 33" d="M75.7333 10.2327L59.2122 11.4641L57.3564 13.3265L73.8775 12.0951L75.7333 10.2327Z" fill="var(--fill-0, black)"/>
<path id="49 50" d="M76.6068 20.8167C77.1792 21.2722 77.4908 21.8405 77.5412 22.5218L75.6854 24.3842C75.635 23.7029 75.3234 23.1346 74.751 22.6791L76.6068 20.8167Z" fill="var(--fill-0, black)"/>
<path id="50 51" d="M74.848 20.107C75.5028 20.0582 76.089 20.2949 76.6065 20.8168L74.7507 22.6792C74.2332 22.1573 73.647 21.9206 72.9922 21.9694L74.848 20.107Z" fill="var(--fill-0, black)"/>
<path id="51 52" d="M69.9364 20.473L74.8481 20.1069L72.9923 21.9693L68.0806 22.3354L69.9364 20.473Z" fill="var(--fill-0, black)"/>
<path id="37 38" d="M90.5954 63.0234L87.4671 20.7545L85.6113 22.6169L88.7396 64.8858L90.5954 63.0234Z" fill="var(--fill-0, black)"/>
<path id="58 59" d="M113.606 72.7042L123.608 71.9587L121.752 73.8211L111.75 74.5666L113.606 72.7042Z" fill="var(--fill-0, black)"/>
<path id="66 67" d="M92.369 22.3507L96.1917 74.0025L94.3359 75.8649L90.5132 24.2131L92.369 22.3507Z" fill="var(--fill-0, black)"/>
<path id="48 49" d="M77.5408 22.5217L80.511 62.654L78.6552 64.5164L75.6851 24.3841L77.5408 22.5217Z" fill="var(--fill-0, black)"/>
<path id="30 31" d="M53.7781 11.8691L43.7762 12.6146L41.9204 14.477L51.9223 13.7315L53.7781 11.8691Z" fill="var(--fill-0, black)"/>
<path id="52 45" d="M73.2915 65.8079L69.9364 20.4732L68.0806 22.3356L71.4357 67.6703L73.2915 65.8079Z" fill="var(--fill-0, black)"/>
<path id="65 66" d="M96.1927 74.0025L106.195 73.257L104.339 75.1194L94.3369 75.8649L96.1927 74.0025Z" fill="var(--fill-0, black)"/>
<path id="38 39" d="M90.0321 67.549C90.522 66.0802 90.7097 64.5716 90.5951 63.0233L88.7393 64.8858C88.8539 66.434 88.6662 67.9426 88.1763 69.4114L90.0321 67.549Z" fill="var(--fill-0, black)"/>
<path id="2 3" d="M38.126 18.2671C37.558 17.0639 36.7932 16.0311 35.8314 15.1687L33.9756 17.0311C34.9374 17.8935 35.7022 18.9263 36.2702 20.1295L38.126 18.2671Z" fill="var(--fill-0, black)"/>
<path id="1 2" d="M35.8309 15.1686C34.8691 14.3062 33.7746 13.6717 32.5472 13.2649L30.6914 15.1274C31.9188 15.5341 33.0134 16.1686 33.9751 17.0311L35.8309 15.1686Z" fill="var(--fill-0, black)"/>
<path id="39 40" d="M87.9783 71.3454C88.9125 70.2171 89.5973 68.9517 90.0323 67.5492L88.1765 69.4116C87.7415 70.8141 87.0567 72.0795 86.1226 73.2078L87.9783 71.3454Z" fill="var(--fill-0, black)"/>
<path id="3 4" d="M39.2183 22.1089C39.1129 20.6845 38.7487 19.4039 38.1258 18.2671L36.27 20.1295C36.8929 21.2663 37.2571 22.5469 37.3625 23.9714L39.2183 22.1089Z" fill="var(--fill-0, black)"/>
<path id="43 44" d="M59.2122 11.4641L64.0181 76.4004L62.1623 78.2628L57.3564 13.3265L59.2122 11.4641Z" fill="var(--fill-0, black)"/>
<path id="0 1" d="M32.5473 13.265C31.3749 12.7919 30.104 12.6064 28.7347 12.7085L26.8789 14.5709C28.2482 14.4688 29.5191 14.6543 30.6915 15.1274L32.5473 13.265Z" fill="var(--fill-0, black)"/>
<path id="47 48" d="M80.5109 62.6544C80.5659 63.3975 80.3437 64.037 79.8446 64.5724L77.9888 66.4348C78.4879 65.8994 78.7101 65.26 78.6551 64.5168L80.5109 62.6544Z" fill="var(--fill-0, black)"/>
<path id="40 152" d="M87.3441 72.0437C87.5672 71.8197 87.7788 71.5868 87.9789 71.3452L86.1231 73.2076C85.923 73.4492 85.7114 73.6821 85.4883 73.9061L87.3441 72.0437Z" fill="var(--fill-0, black)"/>
<path id="153 47" d="M79.8446 64.5723C79.788 64.6407 79.7295 64.7052 79.6693 64.7656L77.8145 66.627C77.8744 66.5669 77.9325 66.5028 77.9888 66.4347L79.8446 64.5723Z" fill="var(--fill-0, black)"/>
<path id="46 153" d="M79.6692 64.7651C79.2621 65.1734 78.7734 65.3989 78.203 65.4414L76.3472 67.3038C76.9176 67.2613 77.4063 67.0359 77.8134 66.6275L79.6692 64.7651Z" fill="var(--fill-0, black)"/>
<path id="152 41" d="M84.6746 74.0197C85.695 73.4636 86.5833 72.8063 87.3395 72.0477L85.488 73.9059C84.7308 74.6662 83.8411 75.325 82.8188 75.8822L84.6746 74.0197Z" fill="var(--fill-0, black)"/>
<path id="28 0" d="M28.7346 12.7083C26.7104 12.8592 24.9382 13.5829 23.4178 14.8794L21.562 16.7418C23.0824 15.4453 24.8546 14.7216 26.8788 14.5707L28.7346 12.7083Z" fill="var(--fill-0, black)"/>
<path id="31 32" d="M58.584 76.8055L53.7782 11.8691L51.9224 13.7315L56.7282 78.6679L58.584 76.8055Z" fill="var(--fill-0, black)"/>
<path id="45 46" d="M78.2031 65.4416L73.2913 65.8077L71.4355 67.6701L76.3473 67.304L78.2031 65.4416Z" fill="var(--fill-0, black)"/>
<path id="41 42" d="M80.5389 75.1692C82.0272 75.0583 83.4056 74.6752 84.6741 74.0202L82.8183 75.8826C81.5498 76.5376 80.1714 76.9207 78.6831 77.0316L80.5389 75.1692Z" fill="var(--fill-0, black)"/>
<path id="151 28" d="M23.4182 14.8796C23.1746 15.0841 22.9423 15.2972 22.7215 15.5189L20.8697 17.3773C21.0893 17.157 21.3202 16.9453 21.5624 16.742L23.4182 14.8796Z" fill="var(--fill-0, black)"/>
<path id="7 8" d="M28.6116 23.1796C28.9964 23.5246 29.2071 23.9448 29.2437 24.4402L27.3879 26.3026C27.3513 25.8072 27.1406 25.387 26.7559 25.042L28.6116 23.1796Z" fill="var(--fill-0, black)"/>
<path id="8 9" d="M27.3201 22.7153C27.7964 22.6798 28.2269 22.8346 28.6116 23.1796L26.7558 25.042C26.3711 24.697 25.9406 24.5423 25.4644 24.5778L27.3201 22.7153Z" fill="var(--fill-0, black)"/>
<path id="27 151" d="M22.7211 15.5188C21.6136 16.6309 20.7926 17.9597 20.2581 19.5053L18.4023 21.3677C18.9368 19.8221 19.7578 18.4933 20.8654 17.3812L22.7211 15.5188Z" fill="var(--fill-0, black)"/>
<path id="9 148" d="M26.2459 23.2172C26.5488 22.9134 26.9068 22.7461 27.32 22.7153L25.4643 24.5777C25.0511 24.6085 24.693 24.7758 24.3901 25.0796L26.2459 23.2172Z" fill="var(--fill-0, black)"/>
<path id="148 10" d="M26.1112 23.366C26.1546 23.3136 26.1993 23.2643 26.2452 23.2181L24.3902 25.0797C24.344 25.1261 24.299 25.1757 24.2554 25.2284L26.1112 23.366Z" fill="var(--fill-0, black)"/>
<path id="10 11" d="M25.6714 24.7066C25.6347 24.2111 25.7812 23.7643 26.1109 23.366L24.2551 25.2284C23.9254 25.6267 23.7789 26.0735 23.8156 26.569L25.6714 24.7066Z" fill="var(--fill-0, black)"/>
<path id="29 30" d="M43.7762 12.6147L48.5821 77.551L46.7263 79.4134L41.9204 14.4771L43.7762 12.6147Z" fill="var(--fill-0, black)"/>
<path id="26 27" d="M20.2579 19.5054C19.351 17.767 18.0526 16.4003 16.3626 15.4054L14.5068 17.2678C16.1968 18.2627 17.4952 19.6294 18.4021 21.3678L20.2579 19.5054Z" fill="var(--fill-0, black)"/>
<path id="25 26" d="M16.3626 15.4054C14.7276 14.344 12.898 13.8888 10.8739 14.0397L9.01807 15.9021C11.0423 15.7512 12.8719 16.2064 14.5069 17.2678L16.3626 15.4054Z" fill="var(--fill-0, black)"/>
<path id="42 43" d="M64.0179 76.4007L80.5389 75.1693L78.6831 77.0317L62.1621 78.2632L64.0179 76.4007Z" fill="var(--fill-0, black)"/>
<path id="24 25" d="M10.8742 14.0397C9.56444 14.1373 8.33483 14.5092 7.18538 15.1553L5.32959 17.0177C6.47904 16.3716 7.70865 15.9997 9.01842 15.9021L10.8742 14.0397Z" fill="var(--fill-0, black)"/>
<path id="4 5" d="M43.3497 77.9411L39.2176 22.1089L37.3618 23.9713L41.4939 79.8035L43.3497 77.9411Z" fill="var(--fill-0, black)"/>
<path id="14 15" d="M15.0374 24.1915C15.4221 24.5364 15.6328 24.9567 15.6695 25.4521L13.8137 27.3145C13.777 26.8191 13.5664 26.3989 13.1816 26.0539L15.0374 24.1915Z" fill="var(--fill-0, black)"/>
<path id="15 16" d="M13.6566 23.7341C14.1924 23.6942 14.6527 23.8467 15.0374 24.1917L13.1816 26.0541C12.7969 25.7091 12.3366 25.5566 11.8008 25.5965L13.6566 23.7341Z" fill="var(--fill-0, black)"/>
<path id="150 24" d="M7.1857 15.1555C6.29257 15.6076 5.49819 16.1829 4.80257 16.8814L2.95062 18.74C3.64532 18.0432 4.43842 17.4692 5.32991 17.0179L7.1857 15.1555Z" fill="var(--fill-0, black)"/>
<path id="16 149" d="M12.5824 24.2357C12.8852 23.9319 13.2433 23.7646 13.6565 23.7338L11.8007 25.5962C11.3875 25.627 11.0294 25.7943 10.7266 26.0981L12.5824 24.2357Z" fill="var(--fill-0, black)"/>
<path id="149 17" d="M12.4481 24.3845C12.4915 24.3321 12.5362 24.2828 12.5822 24.2366L10.7272 26.0982C10.6809 26.1446 10.636 26.1942 10.5923 26.2469L12.4481 24.3845Z" fill="var(--fill-0, black)"/>
<path id="23 150" d="M4.80193 16.8816C4.59873 17.0856 4.40396 17.3002 4.21761 17.5252L2.36182 19.3876C2.54817 19.1626 2.74294 18.948 2.94614 18.744L4.80193 16.8816Z" fill="var(--fill-0, black)"/>
<path id="17 18" d="M12.0088 25.7251C11.9721 25.2296 12.1186 24.7828 12.4483 24.3845L10.5925 26.247C10.2628 26.6452 10.1163 27.092 10.153 27.5875L12.0088 25.7251Z" fill="var(--fill-0, black)"/>
<path id="22 23" d="M4.21789 17.525C3.39362 18.5205 2.75941 19.6576 2.31526 20.9362L0.459473 22.7986C0.903617 21.52 1.53783 20.3829 2.3621 19.3874L4.21789 17.525Z" fill="var(--fill-0, black)"/>
<path id="6 7" d="M29.244 24.4402L33.2592 78.6931L31.4034 80.5555L27.3882 26.3026L29.244 24.4402Z" fill="var(--fill-0, black)"/>
<path id="21 22" d="M2.31515 20.9363C1.92596 22.1485 1.78407 23.4668 1.88949 24.8913L0.0337042 26.7537C-0.0717175 25.3292 0.0701681 24.0109 0.459361 22.7987L2.31515 20.9363Z" fill="var(--fill-0, black)"/>
<path id="32 29" d="M48.5814 77.5512L58.5833 76.8057L56.7275 78.6681L46.7256 79.4137L48.5814 77.5512Z" fill="var(--fill-0, black)"/>
<path id="11 12" d="M29.6869 78.9595L25.6717 24.7065L23.8159 26.5689L27.8311 80.8219L29.6869 78.9595Z" fill="var(--fill-0, black)"/>
<path id="13 14" d="M15.6698 25.4521L19.6849 79.705L17.8292 81.5674L13.814 27.3145L15.6698 25.4521Z" fill="var(--fill-0, black)"/>
<path id="18 19" d="M16.0233 79.978L12.0081 25.725L10.1523 27.5874L14.1675 81.8404L16.0233 79.978Z" fill="var(--fill-0, black)"/>
<path id="5 6" d="M33.2591 78.6933L43.3503 77.9411L41.4945 79.8035L31.4033 80.5557L33.2591 78.6933Z" fill="var(--fill-0, black)"/>
<path id="20 21" d="M1.88948 24.8912L6.02156 80.7235L4.16577 82.5859L0.0336914 26.7536L1.88948 24.8912Z" fill="var(--fill-0, black)"/>
<path id="12 13" d="M19.6854 79.7049L29.6873 78.9594L27.8315 80.8218L17.8296 81.5673L19.6854 79.7049Z" fill="var(--fill-0, black)"/>
<path id="19 20" d="M6.02181 80.7234L16.0237 79.9779L14.1679 81.8403L4.16602 82.5858L6.02181 80.7234Z" fill="var(--fill-0, black)"/>
<g id="Vector">
<path d="M26.8788 14.571C28.2481 14.4689 29.519 14.6545 30.6914 15.1275C31.9188 15.5342 33.0133 16.1688 33.9751 17.0312C34.9369 17.8937 35.7018 18.9264 36.2697 20.1296C36.8926 21.2664 37.2568 22.547 37.3622 23.9714L41.4943 79.8037L31.4031 80.5559L27.3879 26.3029C27.3512 25.8074 27.1405 25.3872 26.7558 25.0423C26.3711 24.6973 25.9406 24.5426 25.4643 24.5781C25.0511 24.6089 24.6931 24.7761 24.3902 25.0799C24.344 25.1263 24.299 25.1759 24.2553 25.2286C23.9256 25.6269 23.7791 26.0737 23.8158 26.5692L27.831 80.8221L17.8291 81.5676L13.8139 27.3147C13.7772 26.8192 13.5665 26.399 13.1818 26.054C12.7971 25.7091 12.3368 25.5565 11.801 25.5965C11.3878 25.6273 11.0298 25.7946 10.7269 26.0984C10.6807 26.1448 10.6357 26.1943 10.592 26.2471C10.2623 26.6453 10.1158 27.0921 10.1525 27.5876L14.1677 81.8406L4.16578 82.5861L0.0337042 26.7538C-0.0717175 25.3294 0.0701681 24.011 0.459361 22.7988C0.903506 21.5202 1.53771 20.3832 2.36199 19.3876C2.54834 19.1625 2.74311 18.948 2.94631 18.7439C3.64194 18.0454 4.43631 17.4701 5.32945 17.018C6.4789 16.3718 7.70851 15.9999 9.01828 15.9023C11.0425 15.7514 12.8721 16.2066 14.5071 17.268C16.197 18.263 17.4954 19.6296 18.4023 21.368C18.9368 19.8224 19.7578 18.4936 20.8653 17.3815C21.0861 17.1598 21.3184 16.9466 21.562 16.7421C23.0823 15.4456 24.8546 14.7219 26.8788 14.571Z" fill="var(--fill-0, black)"/>
<path d="M46.7261 79.4137L41.9203 14.4774L51.9222 13.7318L56.728 78.6682L46.7261 79.4137Z" fill="var(--fill-0, black)"/>
<path fill-rule="evenodd" clip-rule="evenodd" d="M73.8775 12.0954C75.3658 11.9845 76.7877 12.1899 78.1433 12.7116C79.5538 13.167 80.7743 13.8855 81.8048 14.8673C82.8902 15.7828 83.7515 16.9019 84.3881 18.2245C85.0843 19.5426 85.492 21.0068 85.6112 22.617L88.7395 64.8859C88.854 66.4342 88.6663 67.9428 88.1764 69.4116C87.7414 70.814 87.0567 72.0795 86.1225 73.2078C85.9224 73.4495 85.7108 73.6823 85.4877 73.9063C84.7305 74.6667 83.8408 75.3254 82.8185 75.8826C81.55 76.5376 80.1717 76.9207 78.6833 77.0317L62.1623 78.2631L57.3564 13.3269L73.8775 12.0954ZM71.4354 67.6704L76.3471 67.3043C76.9175 67.2617 77.4063 67.0363 77.8134 66.628C77.8736 66.5676 77.9321 66.5032 77.9888 66.4347C78.4879 65.8993 78.7101 65.2599 78.6551 64.5167L75.6849 24.3844C75.6345 23.7032 75.3229 23.1349 74.7505 22.6793C74.233 22.1575 73.6468 21.9208 72.992 21.9696L68.0802 22.3357L71.4354 67.6704Z" fill="var(--fill-0, black)"/>
<path d="M103.125 8.98121C105.03 8.8392 106.844 9.07767 108.566 9.69661C110.288 10.3155 111.822 11.2287 113.168 12.4361C114.51 13.5816 115.603 14.9947 116.445 16.6756C117.288 18.3565 117.783 20.1878 117.93 22.1697L121.752 73.8215L111.75 74.567L107.886 22.3578C107.808 21.3049 107.355 20.4357 106.526 19.7502C105.757 19.0603 104.866 18.7531 103.854 18.8285C102.969 18.8945 102.219 19.236 101.603 19.8532C101.515 19.9419 101.429 20.0363 101.347 20.1363C100.687 20.9328 100.396 21.8574 100.474 22.9103L104.338 75.1195L94.3363 75.865L90.5136 24.2132C90.367 22.2313 90.589 20.3777 91.1796 18.6523C91.7657 16.8649 92.6357 15.2743 93.7897 13.8806C94.0645 13.5487 94.3523 13.2317 94.653 12.9297C95.6153 11.9633 96.7105 11.1496 97.9387 10.4887C99.5506 9.62128 101.279 9.11877 103.125 8.98121Z" fill="var(--fill-0, black)"/>
<path d="M126.872 73.4398L122.066 8.5035L132.068 7.75798L136.874 72.6943L126.872 73.4398Z" fill="var(--fill-0, black)"/>
<path d="M196.052 2.98879L200.858 67.9251L190.856 68.6707L188.876 41.9158L181.464 42.4682L183.444 69.2231L173.442 69.9687L168.636 5.03231L178.638 4.28679L180.742 32.7139L188.154 32.1614L186.05 3.73431L196.052 2.98879Z" fill="var(--fill-0, black)"/>
<path d="M231.105 34.7514L232.397 52.2164C232.544 54.1982 232.324 56.0828 231.738 57.8702C231.152 59.6576 230.282 61.2481 229.128 62.6419C228.916 62.8859 228.696 63.122 228.469 63.3504C227.455 64.3688 226.289 65.2323 224.972 65.9409C223.36 66.8083 221.602 67.313 219.697 67.455C217.851 67.5926 216.067 67.3519 214.345 66.733C212.623 66.114 211.091 65.2318 209.749 64.0864C208.403 62.879 207.308 61.4348 206.466 59.754C205.623 58.0731 205.128 56.2418 204.981 54.2599L201.159 2.60812L211.161 1.8626L212.515 20.1637L225.464 19.1985L224.317 29.1856L213.244 30.011L215.025 54.0718C215.107 55.1866 215.565 56.1177 216.399 56.8651C217.287 57.5462 218.237 57.849 219.25 57.7736C220.321 57.6937 221.216 57.2533 221.935 56.4524C222.65 55.5896 222.966 54.6008 222.883 53.486L221.694 37.4145L231.105 34.7514Z" fill="var(--fill-0, black)"/>
<path fill-rule="evenodd" clip-rule="evenodd" d="M166.068 32.6865C166.21 34.6064 165.988 36.4603 165.402 38.2477C164.816 40.035 163.946 41.6255 162.792 43.0193C162.517 43.3512 162.229 43.6682 161.928 43.9703C160.966 44.9367 159.871 45.7503 158.643 46.4112C157.031 47.2786 155.272 47.7833 153.367 47.9253C152.087 48.0208 150.836 47.9339 149.615 47.6652L149.866 51.0544C151.028 50.6125 152.245 50.3442 153.517 50.2493C155.423 50.1073 157.236 50.3458 158.958 50.9647C160.68 51.5837 162.214 52.4969 163.561 53.7043C164.903 54.8498 165.995 56.2629 166.838 57.9437C167.681 59.6246 168.175 61.4559 168.322 63.4377L168.831 70.3123L158.829 71.0578L158.279 63.6258C158.196 62.5111 157.743 61.6418 156.919 61.0183C156.149 60.3284 155.258 60.0211 154.246 60.0966C153.361 60.1625 152.611 60.5042 151.996 61.1214C151.907 61.21 151.822 61.3043 151.739 61.4044C151.08 62.2008 150.789 63.1255 150.867 64.1783L151.417 71.6103L141.415 72.3558L140.906 65.4812C140.885 65.2001 140.872 64.9215 140.866 64.6455L137.497 19.123C137.378 17.5128 137.563 15.9733 138.053 14.5045C138.543 13.0357 139.255 11.7371 140.189 10.6088C140.412 10.3401 140.645 10.083 140.89 9.83739C141.672 9.05166 142.567 8.38403 143.576 7.83444C144.899 7.11308 146.335 6.69462 147.883 6.57922L164.047 5.3744L166.068 32.6865ZM151.016 16.1539C150.183 16.216 149.47 16.5436 148.879 17.1365C148.752 17.2636 148.631 17.403 148.516 17.5545C147.856 18.3509 147.565 19.2757 147.643 20.3285L148.716 34.8207C148.794 35.8735 149.188 36.7472 149.897 37.4416C150.662 38.0696 151.551 38.3459 152.563 38.2705L152.652 38.2638C153.537 38.1979 154.287 37.8562 154.903 37.239C154.991 37.1504 155.077 37.056 155.159 36.956C155.878 36.1551 156.199 35.2282 156.121 34.1754L154.767 15.8743L151.016 16.1539Z" fill="var(--fill-0, black)"/>
</g>
</g>
</svg>
