<svg preserveAspectRatio="none" width="100%" height="100%" overflow="visible" style="display: block;" viewBox="0 0 229.851 67.0698" fill="none" xmlns="http://www.w3.org/2000/svg">
<g id="Front">
<path id="midnight" d="M27.6713 5.63042e-05C29.0444 5.63042e-05 30.2981 0.279515 31.4324 0.838433C32.6264 1.33525 33.6711 2.04942 34.5666 2.98095C35.4621 3.91248 36.1487 4.99927 36.6263 6.24131C37.1636 7.42125 37.4322 8.72539 37.4322 10.1537V66.1387H27.3131V11.7373C27.3131 11.2405 27.1339 10.8058 26.7757 10.4332C26.4175 10.0606 25.9996 9.87427 25.522 9.87427C25.0444 9.87427 24.6265 10.0606 24.2683 10.4332C23.9101 10.8058 23.731 11.2405 23.731 11.7373V66.1387H13.7014V11.7373C13.7014 11.2405 13.5223 10.8058 13.1641 10.4332C12.8059 10.0606 12.3581 9.87427 11.8208 9.87427C11.3432 9.87427 10.9253 10.0606 10.5671 10.4332C10.2089 10.8058 10.0298 11.2405 10.0298 11.7373V66.1387H0.000191297L0.000191297 10.1537C0.000191297 8.72539 0.238992 7.42125 0.716594 6.24131C1.2539 4.99927 1.9703 3.91248 2.8658 2.98095C3.76131 2.04942 4.80606 1.33525 6.00007 0.838433C7.19407 0.279515 8.44778 5.63042e-05 9.76118 5.63042e-05C11.791 5.63042e-05 13.582 0.590025 15.1342 1.76996C16.7461 2.8878 17.9401 4.3472 18.7162 6.14815C19.4923 4.3472 20.6565 2.8878 22.2087 1.76996C23.8206 0.590025 25.6414 5.63042e-05 27.6713 5.63042e-05Z" fill="var(--fill-0, #FEE1C0)"/>
<path id="midnight_2" d="M42.6782 66.1383L42.6782 1.02435L52.7078 1.02435L52.7078 66.1383L42.6782 66.1383Z" fill="var(--fill-0, #FEE1C0)"/>
<path id="Subtract" d="M74.7239 1.02462C76.2164 1.02463 77.6195 1.33525 78.9329 1.95627C80.3059 2.51517 81.47 3.32248 82.4251 4.37814C83.44 5.37177 84.2159 6.55193 84.7532 7.91818C85.3502 9.28428 85.6487 10.7744 85.6487 12.3889L85.6487 54.7736C85.6487 56.3262 85.3502 57.817 84.7532 59.2453C84.2159 60.6115 83.44 61.8225 82.4251 62.8781C81.47 63.8717 80.3059 64.679 78.9329 65.3C77.6195 65.8589 76.2164 66.1389 74.7239 66.1389L58.1575 66.1389L58.1575 1.02462L74.7239 1.02462ZM68.1868 56.2639L73.1116 56.2639C73.7683 56.2639 74.3352 56.0155 74.8128 55.5188C75.3501 55.0219 75.6194 54.4007 75.6194 53.6555L75.6194 13.4143C75.6194 12.7312 75.3501 12.1406 74.8128 11.6438C74.3353 11.085 73.7682 10.8059 73.1116 10.8059L68.1868 10.8059L68.1868 56.2639Z" fill="var(--fill-0, #FEE1C0)"/>
<path id="midnight_3" d="M104.122 0.092983C106.032 0.092983 107.823 0.465596 109.495 1.21082C111.166 1.95604 112.629 2.98073 113.883 4.28487C115.136 5.52691 116.121 7.01735 116.838 8.75621C117.554 10.4951 117.912 12.3581 117.912 14.3454L117.912 66.1385L107.883 66.1385L107.883 13.7865C107.883 12.7307 107.495 11.8303 106.719 11.085C106.002 10.3398 105.137 9.9672 104.122 9.9672C103.107 9.9672 102.241 10.3398 101.525 11.085C100.808 11.8303 100.45 12.7307 100.45 13.7865L100.45 66.1385L90.4205 66.1385L90.4205 14.3454C90.4205 12.3581 90.7787 10.5261 91.4951 8.84937C92.2115 7.11051 93.1966 5.58901 94.4503 4.28487C95.704 2.98073 97.1667 1.95604 98.8383 1.21082C100.51 0.465596 102.271 0.092983 104.122 0.092983Z" fill="var(--fill-0, #FEE1C0)"/>
<path id="midnight_4" d="M123.047 66.1383L123.047 1.02438L133.076 1.02438L133.076 66.1383L123.047 66.1383Z" fill="var(--fill-0, #FEE1C0)"/>
<path id="midnight_5" d="M197.238 1.02454L197.238 66.1385L187.208 66.1385L187.208 39.3104L179.776 39.3104L179.776 66.1385L169.746 66.1385L169.746 1.02454L179.776 1.02454L179.776 29.5294L187.208 29.5294L187.208 1.02454L197.238 1.02454Z" fill="var(--fill-0, #FEE1C0)"/>
<path id="midnight_6" d="M229.851 35.3046L229.851 52.8174C229.851 54.8046 229.492 56.6677 228.776 58.4065C228.06 60.1454 227.075 61.6669 225.821 62.971C224.567 64.2131 223.105 65.2067 221.433 65.9519C219.761 66.6972 217.97 67.0698 216.06 67.0698C214.209 67.0698 212.448 66.6972 210.776 65.9519C209.105 65.2067 207.642 64.2131 206.388 62.971C205.135 61.6669 204.15 60.1454 203.433 58.4065C202.717 56.6677 202.359 54.8046 202.359 52.8174L202.359 1.0243L212.388 1.0243L212.388 19.3754L225.373 19.3754L223.493 29.2497L212.388 29.2497L212.388 53.3763C212.388 54.4941 212.776 55.4567 213.553 56.264C214.388 57.0092 215.314 57.3819 216.329 57.3819C217.403 57.3819 218.329 57.0092 219.105 56.264C219.881 55.4567 220.269 54.4941 220.269 53.3763L220.269 37.2608L229.851 35.3046Z" fill="var(--fill-0, #FEE1C0)"/>
<path id="Union" d="M165.143 28.4114C165.143 30.3365 164.786 32.1687 164.069 33.9075C163.353 35.6462 162.368 37.1679 161.114 38.472C159.861 39.776 158.397 40.801 156.726 41.5462C155.054 42.2912 153.263 42.6634 151.352 42.6634C150.069 42.6633 148.828 42.4828 147.631 42.1243L147.631 45.5237C148.822 45.1694 150.056 44.9925 151.332 44.9925C153.242 44.9925 155.034 45.3655 156.705 46.1106C158.376 46.8558 159.839 47.8808 161.093 49.1848C162.346 50.4268 163.331 51.9169 164.048 53.6555C164.764 55.3944 165.122 57.2581 165.122 59.2454L165.122 66.138L155.093 66.138L155.093 58.6858C155.093 57.5682 154.705 56.6677 153.929 55.9846C153.212 55.2395 152.347 54.8666 151.332 54.8665C150.317 54.8665 149.451 55.2394 148.734 55.9846C148.018 56.7298 147.66 57.6303 147.66 58.6858L147.66 66.138L137.63 66.138L137.63 59.2454C137.63 58.9674 137.638 58.6921 137.652 58.4202L137.652 28.4827C137.652 28.4589 137.651 28.4352 137.651 28.4114L137.651 12.762C137.651 11.1476 137.95 9.62571 138.547 8.19754C139.144 6.76932 139.95 5.52665 140.965 4.47098C141.98 3.41541 143.174 2.57732 144.547 1.95633C145.92 1.33535 147.383 1.02473 148.935 1.02469L165.143 1.02469L165.143 28.4114ZM151.352 10.805C150.338 10.8051 149.472 11.2089 148.756 12.0159C148.04 12.761 147.681 13.6616 147.681 14.7171L147.681 29.2493C147.681 30.3049 148.009 31.2053 148.666 31.9505C149.382 32.6335 150.248 32.9757 151.263 32.9759L151.352 32.9759C152.304 32.9758 153.124 32.6482 153.813 31.9934L154.091 31.7161C154.773 30.9994 155.113 30.146 155.113 29.1565L155.113 10.805L151.352 10.805Z" fill="var(--fill-0, #FEE1C0)"/>
</g>
</svg>
